<svg width="314" height="63" viewBox="0 0 314 63" fill="none" xmlns="http://www.w3.org/2000/svg">
    <path
        d="M62.3276 62.0409C67.1442 62.0409 71.2018 61.1247 74.5002 59.2923C77.8509 57.4599 80.4948 54.685 82.432 50.9678L70.1809 48.5333C69.3955 49.8945 68.2961 50.9416 66.8825 51.6746C65.5212 52.3552 63.8459 52.6955 61.8564 52.6955C60.2334 52.6955 58.8721 52.329 57.7727 51.5961C56.6732 50.8107 55.8355 49.7113 55.2596 48.2977C54.6837 46.8841 54.4219 45.1564 54.4743 43.1145C54.4743 40.8109 54.7361 38.9261 55.2596 37.4602C55.7832 35.9419 56.5685 34.8162 57.6156 34.0833C58.6627 33.3503 59.9716 32.9838 61.5422 32.9838C62.7988 32.9838 63.872 33.2717 64.7621 33.8477C65.7045 34.3712 66.4113 35.1565 66.8825 36.2036C67.406 37.1984 67.6678 38.4287 67.6678 39.8947C67.6678 40.2612 67.5631 40.7062 67.3537 41.2297C67.1442 41.7533 66.9087 42.2245 66.6469 42.6433L69.5526 39.0308H48.2702V46.0202H81.9608C82.0131 45.549 82.0393 45.0255 82.0393 44.4496C82.0917 43.8213 82.1178 43.1931 82.1178 42.5648C82.1178 38.6382 81.3325 35.3398 79.7619 32.6697C78.1912 29.9472 75.9138 27.8792 72.9295 26.4656C69.9453 25.052 66.2542 24.3452 61.8564 24.3452C57.4585 24.3452 53.689 25.1043 50.5476 26.6226C47.4063 28.1409 44.998 30.3137 43.3226 33.1409C41.6473 35.9157 40.8096 39.2664 40.8096 43.1931C40.8096 47.0673 41.6734 50.4181 43.4012 53.2453C45.1289 56.0201 47.5896 58.1928 50.7832 59.7635C54.0293 61.2818 57.8774 62.0409 62.3276 62.0409Z"
        fill="black" />
    <path
        d="M95.2973 25.1305H82.0252V61.2556H95.2973V25.1305ZM105.585 39.0308L111.239 27.3294C110.664 26.4394 109.773 25.7064 108.569 25.1305C107.365 24.5022 106.109 24.1881 104.8 24.1881C102.706 24.1881 100.69 24.8687 98.7527 26.23C96.8679 27.5388 95.3496 29.3189 94.1978 31.5702C93.046 33.8215 92.4701 36.3869 92.4701 39.2664L95.2973 44.6852C95.2973 42.9575 95.5328 41.5177 96.004 40.3659C96.5276 39.2141 97.2344 38.3502 98.1244 37.7743C99.0145 37.1984 99.983 36.9104 101.03 36.9104C102.077 36.9104 102.941 37.1199 103.622 37.5387C104.355 37.9052 105.009 38.4026 105.585 39.0308Z"
        fill="black" />
    <path
        d="M105.82 43.1931C105.82 47.015 106.736 50.3395 108.569 53.1667C110.401 55.9939 112.914 58.1928 116.108 59.7635C119.354 61.2818 122.993 62.0409 127.024 62.0409C131.108 62.0409 134.746 61.2818 137.94 59.7635C141.134 58.1928 143.647 55.9939 145.479 53.1667C147.364 50.3395 148.306 47.015 148.306 43.1931C148.306 39.3188 147.364 35.968 145.479 33.1409C143.647 30.3137 141.134 28.1409 137.94 26.6226C134.746 25.052 131.108 24.2666 127.024 24.2666C122.993 24.2666 119.354 25.052 116.108 26.6226C112.914 28.1409 110.401 30.3137 108.569 33.1409C106.736 35.968 105.82 39.3188 105.82 43.1931ZM119.799 43.1931C119.799 41.5177 120.113 40.1041 120.741 38.9523C121.422 37.7481 122.312 36.8319 123.411 36.2036C124.511 35.5754 125.715 35.2612 127.024 35.2612C128.333 35.2612 129.537 35.5754 130.636 36.2036C131.736 36.8319 132.626 37.7481 133.307 38.9523C133.987 40.1041 134.327 41.5177 134.327 43.1931C134.327 44.8684 133.987 46.3082 133.307 47.5124C132.626 48.6642 131.736 49.5542 130.636 50.1825C129.537 50.7584 128.333 51.0463 127.024 51.0463C125.715 51.0463 124.511 50.7584 123.411 50.1825C122.312 49.5542 121.422 48.6642 120.741 47.5124C120.113 46.3082 119.799 44.8684 119.799 43.1931Z"
        fill="black" />
    <path
        d="M161.464 0H147.877V61.2556H161.464V0ZM190.756 43.1931C190.756 39.057 189.919 35.6016 188.243 32.8267C186.62 30.0519 184.526 27.9577 181.961 26.5441C179.395 25.0782 176.673 24.3452 173.793 24.3452C170.809 24.3452 168.113 25.1043 165.704 26.6226C163.348 28.1409 161.464 30.3137 160.05 33.1409C158.689 35.9157 158.008 39.2664 158.008 43.1931C158.008 47.0673 158.689 50.4181 160.05 53.2453C161.464 56.0724 163.348 58.2452 165.704 59.7635C168.113 61.2818 170.809 62.0409 173.793 62.0409C176.673 62.0409 179.395 61.3341 181.961 59.9206C184.526 58.4546 186.62 56.3342 188.243 53.5594C189.919 50.7322 190.756 47.2768 190.756 43.1931ZM176.463 43.1931C176.463 44.7637 176.123 46.1773 175.442 47.4338C174.762 48.6904 173.846 49.6589 172.694 50.3396C171.542 51.0202 170.259 51.3605 168.846 51.3605C167.642 51.3605 166.464 51.0463 165.312 50.4181C164.212 49.7375 163.296 48.7951 162.563 47.5909C161.83 46.3867 161.464 44.9208 161.464 43.1931C161.464 41.4653 161.83 39.9994 162.563 38.7952C163.296 37.5911 164.212 36.6748 165.312 36.0466C166.464 35.366 167.642 35.0256 168.846 35.0256C170.259 35.0256 171.542 35.366 172.694 36.0466C173.846 36.7272 174.762 37.6958 175.442 38.9523C176.123 40.1565 176.463 41.5701 176.463 43.1931Z"
        fill="black" />
    <path
        d="M188.546 43.1931C188.546 47.015 189.463 50.3395 191.295 53.1667C193.127 55.9939 195.641 58.1928 198.834 59.7635C202.08 61.2818 205.719 62.0409 209.75 62.0409C213.834 62.0409 217.473 61.2818 220.666 59.7635C223.86 58.1928 226.373 55.9939 228.205 53.1667C230.09 50.3395 231.033 47.015 231.033 43.1931C231.033 39.3188 230.09 35.968 228.205 33.1409C226.373 30.3137 223.86 28.1409 220.666 26.6226C217.473 25.052 213.834 24.2666 209.75 24.2666C205.719 24.2666 202.08 25.052 198.834 26.6226C195.641 28.1409 193.127 30.3137 191.295 33.1409C189.463 35.968 188.546 39.3188 188.546 43.1931ZM202.525 43.1931C202.525 41.5177 202.839 40.1041 203.468 38.9523C204.148 37.7481 205.038 36.8319 206.138 36.2036C207.237 35.5754 208.441 35.2612 209.75 35.2612C211.059 35.2612 212.263 35.5754 213.363 36.2036C214.462 36.8319 215.352 37.7481 216.033 38.9523C216.714 40.1041 217.054 41.5177 217.054 43.1931C217.054 44.8684 216.714 46.3082 216.033 47.5124C215.352 48.6642 214.462 49.5542 213.363 50.1825C212.263 50.7584 211.059 51.0463 209.75 51.0463C208.441 51.0463 207.237 50.7584 206.138 50.1825C205.038 49.5542 204.148 48.6642 203.468 47.5124C202.839 46.3082 202.525 44.8684 202.525 43.1931Z"
        fill="black" />
    <path d="M230.682 0V61.2556H244.269V0H230.682Z" fill="black" />
    <path
        d="M256.852 49.9469C256.852 49.1616 257.009 48.5333 257.323 48.0621C257.637 47.5385 258.16 47.1459 258.893 46.8841C259.626 46.6223 260.595 46.4914 261.799 46.4914C263.527 46.4914 265.176 46.727 266.747 47.1982C268.317 47.6694 269.626 48.3501 270.673 49.2401V43.5072C269.993 42.7742 268.972 42.1198 267.611 41.5439C266.302 40.9156 264.757 40.4182 262.977 40.0517C261.249 39.6853 259.391 39.502 257.401 39.502C252.794 39.502 249.26 40.4968 246.799 42.4863C244.391 44.4758 243.187 47.1982 243.187 50.6537C243.187 53.1144 243.789 55.2086 244.993 56.9363C246.197 58.6117 247.768 59.8944 249.705 60.7844C251.695 61.6221 253.841 62.0409 256.145 62.0409C258.553 62.0409 260.752 61.6221 262.742 60.7844C264.783 59.9467 266.38 58.7164 267.532 57.0934C268.736 55.4704 269.338 53.507 269.338 51.2034L268.082 46.4914C268.082 48.1145 267.741 49.4757 267.061 50.5751C266.433 51.6223 265.595 52.4076 264.548 52.9311C263.501 53.4023 262.401 53.6379 261.249 53.6379C260.464 53.6379 259.731 53.507 259.05 53.2453C258.37 52.9311 257.82 52.5123 257.401 51.9887C257.035 51.4128 256.852 50.7322 256.852 49.9469ZM250.255 36.989C250.726 36.7272 251.564 36.3607 252.768 35.8895C253.972 35.4183 255.359 34.9995 256.93 34.633C258.553 34.2665 260.124 34.0833 261.642 34.0833C262.742 34.0833 263.71 34.2141 264.548 34.4759C265.385 34.6853 266.066 35.0256 266.59 35.4968C267.113 35.9157 267.48 36.4392 267.689 37.0675C267.951 37.6958 268.082 38.4026 268.082 39.1879V61.2556H281.04V35.968C281.04 33.4026 280.254 31.2299 278.684 29.4498C277.165 27.6697 275.071 26.3347 272.401 25.4446C269.783 24.5022 266.825 24.031 263.527 24.031C260.124 24.031 256.904 24.4761 253.867 25.3661C250.883 26.2038 248.239 27.12 245.935 28.1148L250.255 36.989Z"
        fill="black" />
    <path
        d="M284.39 47.5124L279.443 56.7792C281.327 57.9834 283.291 59.0567 285.333 59.9991C287.374 60.9415 289.547 61.6745 291.851 62.198C294.207 62.7216 296.72 62.9833 299.39 62.9833C303.84 62.9833 307.269 62.0148 309.678 60.0776C312.138 58.1405 313.369 55.1301 313.369 51.0463C313.369 48.7951 312.871 46.9888 311.877 45.6276C310.934 44.2663 309.678 43.1669 308.107 42.3292C306.589 41.4392 304.913 40.6538 303.081 39.9732C301.144 39.2402 299.547 38.6643 298.291 38.2455C297.034 37.8267 296.092 37.4078 295.463 36.989C294.835 36.5178 294.521 35.9157 294.521 35.1827C294.521 34.6592 294.73 34.2141 295.149 33.8477C295.62 33.4812 296.353 33.2979 297.348 33.2979C298.919 33.2979 300.725 33.7691 302.767 34.7115C304.861 35.6016 306.746 36.7795 308.421 38.2455L312.426 29.2142C310.803 28.2718 309.154 27.4603 307.479 26.7797C305.803 26.0467 304.023 25.4708 302.139 25.052C300.306 24.5808 298.317 24.3452 296.17 24.3452C293.395 24.3452 290.961 24.764 288.867 25.6017C286.772 26.387 285.123 27.565 283.919 29.1357C282.715 30.654 282.113 32.5388 282.113 34.79C282.113 37.146 282.584 39.0832 283.526 40.6015C284.521 42.0674 285.804 43.2454 287.374 44.1355C288.945 44.9731 290.594 45.6799 292.322 46.2558C294.416 46.9365 295.987 47.5124 297.034 47.9836C298.133 48.4548 298.866 48.926 299.233 49.3972C299.652 49.816 299.861 50.3396 299.861 50.9678C299.861 51.7008 299.626 52.2767 299.154 52.6955C298.683 53.1144 297.95 53.3238 296.955 53.3238C296.327 53.3238 295.437 53.1929 294.285 52.9311C293.134 52.6694 291.746 52.1196 290.123 51.2819C288.5 50.4443 286.589 49.1877 284.39 47.5124Z"
        fill="black" />
    <path
        d="M20.5037 33.44L0 60.7783H42.7161V46.7494H26.7987L45.9536 19.4111H4.13672V33.44H20.5037Z"
        fill="black" />
    <path
        d="M141.799 43.7198C141.799 50.6375 135.657 56.2453 128.081 56.2453C120.504 56.2453 114.362 50.6375 114.362 43.7198C114.362 36.8022 120.504 31.1943 128.081 31.1943C135.657 31.1943 141.799 36.8022 141.799 43.7198Z"
        fill="black" />
</svg>